<?xml version="1.0" encoding="UTF-8"?><!DOCTYPE svg PUBLIC "-//W3C//DTD SVG 1.1//EN" "http://www.w3.org/Graphics/SVG/1.1/DTD/svg11.dtd"><svg xmlns="http://www.w3.org/2000/svg" xmlns:xlink="http://www.w3.org/1999/xlink"><symbol id="icon-angle-down" viewBox="0 0 1005 589">
<path d="M1005,90c0,8.7-3.3,16.3-10,23L529,579c-6.7,6.7-14.3,10-23,10s-16.3-3.3-23-10L17,113c-6.7-6.7-10-14.3-10-23
	s3.3-16.3,10-23l50-50c6.7-6.7,14.3-10,23-10s16.3,3.3,23,10l393,393L899,17c6.7-6.7,14.3-10,23-10s16.3,3.3,23,10l50,50
	C1001.7,73.7,1005,81.3,1005,90z"/>
</symbol><symbol id="icon-angle-left" viewBox="0 0 582 998"><path d="M582 83c0 8.7-3.3 16.3-10 23L179 499l393 393c6.7 6.7 10 14.3 10 23s-3.3 16.3-10 23l-50 50c-6.7 6.7-14.3 10-23 10s-16.3-3.3-23-10L10 522c-6.7-6.7-10-14.3-10-23s3.3-16.3 10-23L476 10c6.7-6.7 14.3-10 23-10s16.3 3.3 23 10l50 50C578.7 66.7 582 74.3 582 83z"/></symbol><symbol id="icon-angle-right" viewBox="0 0 582 998">
<path d="M582,499c0,8.7-3.3,16.3-10,23L106,988c-6.7,6.7-14.3,10-23,10s-16.3-3.3-23-10l-50-50c-6.7-6.7-10-14.3-10-23
	s3.3-16.3,10-23l393-393L10,106C3.3,99.3,0,91.7,0,83s3.3-16.3,10-23l50-50C66.7,3.3,74.3,0,83,0s16.3,3.3,23,10l466,466
	C578.7,482.7,582,490.3,582,499z"/>
</symbol><symbol id="icon-angle-up" viewBox="0 0 998 582">
<path d="M998,499c0,8.7-3.3,16.3-10,23l-50,50c-6.7,6.7-14.3,10-23,10s-16.3-3.3-23-10L499,179L106,572c-6.7,6.7-14.3,10-23,10
	s-16.3-3.3-23-10l-50-50c-6.7-6.7-10-14.3-10-23s3.3-16.3,10-23L476,10c6.7-6.7,14.3-10,23-10s16.3,3.3,23,10l466,466
	C994.7,482.7,998,490.3,998,499z"/>
</symbol><symbol id="icon-calendar" viewBox="0 0 1664 1792">
<path d="M128,1664h288v-288H128V1664z M480,1664h320v-288H480V1664z M128,1312h288V992H128V1312z M480,1312h320V992H480V1312z
	 M128,928h288V640H128V928z M864,1664h320v-288H864V1664z M480,928h320V640H480V928z M1248,1664h288v-288h-288V1664z M864,1312h320
	V992H864V1312z M512,448V160c0-8.7-3.2-16.2-9.5-22.5S488.7,128,480,128h-64c-8.7,0-16.2,3.2-22.5,9.5S384,151.3,384,160v288
	c0,8.7,3.2,16.2,9.5,22.5s13.8,9.5,22.5,9.5h64c8.7,0,16.2-3.2,22.5-9.5S512,456.7,512,448z M1248,1312h288V992h-288V1312z M864,928
	h320V640H864V928z M1248,928h288V640h-288V928z M1280,448V160c0-8.7-3.2-16.2-9.5-22.5s-13.8-9.5-22.5-9.5h-64
	c-8.7,0-16.2,3.2-22.5,9.5s-9.5,13.8-9.5,22.5v288c0,8.7,3.2,16.2,9.5,22.5s13.8,9.5,22.5,9.5h64c8.7,0,16.2-3.2,22.5-9.5
	S1280,456.7,1280,448z M1664,384v1280c0,34.7-12.7,64.7-38,90s-55.3,38-90,38H128c-34.7,0-64.7-12.7-90-38s-38-55.3-38-90V384
	c0-34.7,12.7-64.7,38-90s55.3-38,90-38h128v-96c0-44,15.7-81.7,47-113S372,0,416,0h64c44,0,81.7,15.7,113,47s47,69,47,113v96h384
	v-96c0-44,15.7-81.7,47-113s69-47,113-47h64c44,0,81.7,15.7,113,47s47,69,47,113v96h128c34.7,0,64.7,12.7,90,38S1664,349.3,1664,384
	z"/>
</symbol><symbol id="icon-checkmark" viewBox="0 0 72.2 52">
<path id="XMLID_712_" d="M24.5,52c-1.2,0-2.3-0.4-3.2-1.3L1.4,30.8c-1.8-1.8-1.8-4.6,0-6.4c1.8-1.8,4.6-1.8,6.4,0l16.8,16.7
	L64.5,1.3c1.8-1.8,4.6-1.8,6.4,0s1.8,4.6,0,6.4l-43.1,43C26.8,51.6,25.6,52,24.5,52z"/>
</symbol><symbol id="icon-facebook" viewBox="0 0 864 1664">
<path d="M864,12v264H707c-57.3,0-96,12-116,36s-30,60-30,108v189h293l-39,296H561v759H255V905H0V609h255V391
	c0-124,34.7-220.2,104-288.5S520.7,0,636,0C734,0,810,4,864,12z"/>
</symbol><symbol id="icon-heart" viewBox="0 0 1792 1536">
<path d="M896,1536c-17.3,0-32-6-44-18L228,916c-6.7-5.3-15.8-14-27.5-26s-30.2-33.8-55.5-65.5S97,760.3,77,727s-37.8-73.7-53.5-121
	S0,512.7,0,468c0-146.7,42.3-261.3,127-344S328.7,0,478,0c41.3,0,83.5,7.2,126.5,21.5s83,33.7,120,58s68.8,47.2,95.5,68.5
	s52,44,76,68c24-24,49.3-46.7,76-68s58.5-44.2,95.5-68.5s77-43.7,120-58S1272.7,0,1314,0c149.3,0,266.3,41.3,351,124
	s127,197.3,127,344c0,147.3-76.3,297.3-229,450l-623,600C928,1530,913.3,1536,896,1536z"/>
</symbol><symbol id="icon-key" viewBox="0 0 18.2 17">
<path d="M5.1,11.4c0.7,0,1.8-0.3,2.5-0.6l3.3,3.2l1.4-0.1l0,0l2.8,2.7c0.2,0.2,0.7,0.4,1.1,0.4l1.5-0.1c0.3,0,0.6-0.3,0.6-0.7
	l-0.2-2c0-0.3-0.3-0.8-0.5-1L10.7,7c0.2-0.8,0.2-1.8,0.2-2.5c-0.2-3-3.1-4.7-6-4.5C1.9,0.2-0.2,2.8,0,5.8C0.2,8.8,2.2,11.6,5.1,11.4
	z M2.6,3C3.4,2,5,1.9,6.1,2.8c1,0.9,0.2,1.7-0.7,2.7C4.5,6.6,3.9,7.6,2.8,6.7C1.8,5.7,1.7,4.1,2.6,3z"/>
</symbol><symbol id="icon-linkedin" viewBox="0 0 1536 1468">
<path d="M349,477v991H19V477H349z M370,171c0.7,48.7-16.2,89.3-50.5,122S240,342,184,342h-2c-54.7,0-98.7-16.3-132-49S0,219.7,0,171
	c0-49.3,17.2-90.2,51.5-122.5S130.7,0,186,0s99.7,16.2,133,48.5S369.3,121.7,370,171z M1536,900v568h-329V938
	c0-70-13.5-124.8-40.5-164.5S1097.3,714,1040,714c-42,0-77.2,11.5-105.5,34.5S885,800,871,834c-7.3,20-11,47-11,81v553H531
	c1.3-266,2-481.7,2-647s-0.3-264-1-296l-1-48h329v144h-2c13.3-21.3,27-40,41-56s32.8-33.3,56.5-52s52.7-33.2,87-43.5
	S1115,454,1157,454c114,0,205.7,37.8,275,113.5S1536,754,1536,900z"/>
</symbol><symbol id="icon-long-arrow-down" viewBox="0 0 768.1 1728">
<path d="M765,1299c5.3,12.7,3.7,24.3-5,35l-350,384c-6.7,6.7-14.3,10-23,10c-9.3,0-17.3-3.3-24-10L8,1334c-8.7-10.7-10.3-22.3-5-35
	c6-12.7,15.7-19,29-19h224V32c0-9.3,3-17,9-23s13.7-9,23-9h192c9.3,0,17,3,23,9s9,13.7,9,23v1248h224
	C750,1280,759.7,1286.3,765,1299z"/>
</symbol><symbol id="icon-long-arrow-left" viewBox="0 0 1728 768">
<path d="M1728,287.9v192c0,9.3-3,17-9,23s-13.7,9-23,9H448v224c0,14-6.3,23.7-19,29s-24.3,3.7-35-5l-384-350c-6.7-6.7-10-14.3-10-23
	c0-9.3,3.3-17.3,10-24l384-354c10.7-9.3,22.3-11.3,35-6c12.7,6,19,15.7,19,29v224h1248c9.3,0,17,3,23,9S1728,278.6,1728,287.9z"/>
</symbol><symbol id="icon-long-arrow-right" viewBox="0 0 1728 768">
<path d="M1728,381c0,9.3-3.3,17.3-10,24l-384,354c-10.7,9.3-22.3,11.3-35,6c-12.7-6-19-15.7-19-29V512H32c-9.3,0-17-3-23-9
	s-9-13.7-9-23V288c0-9.3,3-17,9-23s13.7-9,23-9h1248V32c0-14,6.3-23.7,19-29c12.7-5.3,24.3-3.7,35,5l384,350
	C1724.7,364.7,1728,372.4,1728,381z"/>
</symbol><symbol id="icon-long-arrow-up" viewBox="0 0 768.1 1728">
<path d="M765,429c-6,12.7-15.7,19-29,19H512v1248c0,9.3-3,17-9,23s-13.7,9-23,9H288c-9.3,0-17-3-23-9s-9-13.7-9-23V448H32
	c-14,0-23.7-6.3-29-19c-5.3-12.7-3.7-24.3,5-35L358,10c6.7-6.7,14.3-10,23-10c9.3,0,17.3,3.3,24,10l355,384
	C768.7,404.7,770.4,416.3,765,429z"/>
</symbol><symbol id="icon-map-marker" viewBox="0 0 1024 1536">
<path d="M768,512c0-70.7-25-131-75-181s-110.3-75-181-75s-131,25-181,75s-75,110.3-75,181s25,131,75,181s110.3,75,181,75
	s131-25,181-75S768,582.7,768,512z M1024,512c0,72.7-11,132.3-33,179l-364,774c-10.7,22-26.5,39.3-47.5,52s-43.5,19-67.5,19
	s-46.5-6.3-67.5-19s-36.5-30-46.5-52L33,691C11,644.3,0,584.7,0,512c0-141.3,50-262,150-362S370.7,0,512,0s262,50,362,150
	S1024,370.7,1024,512z"/>
</symbol><symbol id="icon-play-circle" viewBox="0 0 1536 1536">
<path d="M768,0c139.3,0,267.8,34.3,385.5,103s210.8,161.8,279.5,279.5s103,246.2,103,385.5s-34.3,267.8-103,385.5
	s-161.8,210.8-279.5,279.5S907.3,1536,768,1536s-267.8-34.3-385.5-103S171.7,1271.2,103,1153.5S0,907.3,0,768s34.3-267.8,103-385.5
	S264.8,171.7,382.5,103S628.7,0,768,0z M1152,823c21.3-12,32-30.3,32-55s-10.7-43-32-55L608,393c-20.7-12.7-42-13-64-1
	c-21.3,12.7-32,31.3-32,56v640c0,24.7,10.7,43.3,32,56c10.7,5.3,21.3,8,32,8c11.3,0,22-3,32-9L1152,823z"/>
</symbol><symbol id="icon-play" viewBox="0 0 1407 1552.7">
<path d="M1384,807.3l-1328,738c-15.3,8.7-28.5,9.7-39.5,3S0,1529.7,0,1512.3V40.3C0,23,5.5,11,16.5,4.3c11-6.7,24.2-5.7,39.5,3
	l1328,738c15.3,8.7,23,19,23,31S1399.3,798.7,1384,807.3z"/>
</symbol><symbol id="icon-search" viewBox="0 0 1664 1664">
<path d="M1152,704c0-123.3-43.8-228.8-131.5-316.5S827.3,256,704,256s-228.8,43.8-316.5,131.5S256,580.7,256,704
	s43.8,228.8,131.5,316.5S580.7,1152,704,1152s228.8-43.8,316.5-131.5S1152,827.3,1152,704z M1664,1536c0,34.7-12.7,64.7-38,90
	s-55.3,38-90,38c-36,0-66-12.7-90-38l-343-342c-119.3,82.7-252.3,124-399,124c-95.3,0-186.5-18.5-273.5-55.5s-162-87-225-150
	s-113-138-150-225S0,799.3,0,704s18.5-186.5,55.5-273.5s87-162,150-225s138-113,225-150S608.7,0,704,0s186.5,18.5,273.5,55.5
	s162,87,225,150s113,138,150,225S1408,608.7,1408,704c0,146.7-41.3,279.7-124,399l343,343C1651.7,1470.7,1664,1500.7,1664,1536z"/>
</symbol><symbol id="icon-tags" viewBox="0 0 1899 1515">
<path d="M448,320c0-35.3-12.5-65.5-37.5-90.5S355.3,192,320,192s-65.5,12.5-90.5,37.5S192,284.7,192,320s12.5,65.5,37.5,90.5
	S284.7,448,320,448s65.5-12.5,90.5-37.5S448,355.3,448,320z M1515,896c0,35.3-12.3,65.3-37,90l-491,492c-26,24.7-56.3,37-91,37
	c-35.3,0-65.3-12.3-90-37L91,762c-25.3-24.7-46.8-58.3-64.5-101S0,579.3,0,544V128c0-34.7,12.7-64.7,38-90S93.3,0,128,0h416
	c35.3,0,74.3,8.8,117,26.5S737.7,65.7,763,91l715,714C1502.7,831,1515,861.3,1515,896z M1899,896c0,35.3-12.3,65.3-37,90l-491,492
	c-26,24.7-56.3,37-91,37c-24,0-43.7-4.7-59-14s-33-24.3-53-45l470-470c24.7-24.7,37-54.7,37-90c0-34.7-12.3-65-37-91L923,91
	c-25.3-25.3-59.3-46.8-102-64.5S739.3,0,704,0h224c35.3,0,74.3,8.8,117,26.5c42.7,17.7,76.7,39.2,102,64.5l715,714
	C1886.7,831,1899,861.3,1899,896z"/>
</symbol><symbol id="icon-twitter" viewBox="0 0 1576 1280">
<path d="M1576,152c-44.7,65.3-98.7,121-162,167c0.7,9.3,1,23.3,1,42c0,86.7-12.7,173.2-38,259.5s-63.8,169.2-115.5,248.5
	s-113.2,149.5-184.5,210.5s-157.3,109.7-258,146S610.7,1280,496,1280c-180.7,0-346-48.3-496-145c23.3,2.7,49.3,4,78,4
	c150,0,283.7-46,401-138c-70-1.3-132.7-22.8-188-64.5S197.7,841.7,177,777c22,3.3,42.3,5,61,5c28.7,0,57-3.7,85-11
	c-74.7-15.3-136.5-52.5-185.5-111.5S64,532,64,454v-4c45.3,25.3,94,39,146,41c-44-29.3-79-67.7-105-115s-39-98.7-39-154
	c0-58.7,14.7-113,44-163c80.7,99.3,178.8,178.8,294.5,238.5S644,390.3,776,397c-5.3-25.3-8-50-8-74c0-89.3,31.5-165.5,94.5-228.5
	S1001.7,0,1091,0c93.3,0,172,34,236,102c72.7-14,141-40,205-78c-24.7,76.7-72,136-142,178C1452,195.3,1514,178.7,1576,152z"/>
</symbol><symbol id="icon-users" viewBox="0 0 20 20">
<path d="M16,19.1c0-2.2-2.2-3.4-4.3-4.3c-2.1-0.9-2.8-1.7-2.8-3.3c0-1,0.6-0.7,0.9-2.5c0.1-0.8,0.7,0,0.8-1.7c0-0.7-0.3-0.9-0.3-0.9
	s0.2-1,0.2-1.8c0.1-0.8-0.4-2.6-2.3-3.1C7.9,1.2,7.7,0.7,8.7,0.1C6.4,0,5.9,1.2,4.7,2c-1,0.8-1.3,2-1.2,2.6c0.1,0.8,0.2,1.8,0.2,1.8
	S3.4,6.6,3.4,7.3C3.5,9,4.1,8.3,4.2,9c0.3,1.8,0.9,1.5,0.9,2.5c0,1.6-0.2,2.2-2.3,3.1C0.7,15.5,0,17,0,19.1C0,19.8,0,20,0,20h16
	C16,20,16,19.8,16,19.1z M18.5,13.4c-1.1-0.5-1.6-1-1.6-2.1c0-0.6,0.4-0.4,0.6-1.6c0.1-0.5,0.4,0,0.5-1.1C18,8.1,17.8,8,17.8,8
	s0.1-0.7,0.1-1.2c0-0.6-0.4-2.2-2.3-2.2c-1.9,0-2.3,1.6-2.3,2.2c0,0.5,0.1,1.2,0.1,1.2s-0.2,0.1-0.2,0.6c0.1,1.1,0.4,0.6,0.5,1.1
	c0.2,1.2,0.6,1,0.6,1.6c0,1.1-0.4,1.6-1.8,2.2c-0.1,0-0.1,0.1-0.2,0.1c1.6,0.7,4.2,1.9,4.8,4.4H20c0,0,0-1.9,0-2.3
	C20,14.7,19.7,13.8,18.5,13.4z"/>
</symbol><symbol id="icon-vimeo" viewBox="0 0 1627.8 1408.3">
<path d="M1627,326.3c-6.7,157.3-117.3,374.3-332,651c-222,287.3-409.3,431-562,431c-94.7,0-174.7-87.7-240-263
	c-29.3-106.7-73.3-267.3-132-482c-48-174.7-100.3-262-157-262c-12,0-54.3,25.3-127,76l-77-98c16-14,52-46.2,108-96.5
	s99.3-88.8,130-115.5c104-92,184.3-140.7,241-146c63.3-6,114.3,12.5,153,55.5s65.7,110.8,81,203.5c29.3,191.3,51.3,315.7,66,373
	c36.7,166,76.7,249,120,249c34,0,85.3-53.7,154-161c67.3-107.3,103.7-189.3,109-246c8.7-92.7-27.7-139-109-139
	c-38,0-78.3,8.7-121,26c80-262,233-389.3,459-382C1558.3,5.6,1637,114.3,1627,326.3z"/>
</symbol></svg>