
<svg version="1.1" id="Layer_1" xmlns="http://www.w3.org/2000/svg" xmlns:xlink="http://www.w3.org/1999/xlink" x="0px" y="0px"
	 width="1005px" height="589px" viewBox="0 0 1005 589" enable-background="new 0 0 1005 589" xml:space="preserve">
<path d="M1005,90c0,8.7-3.3,16.3-10,23L529,579c-6.7,6.7-14.3,10-23,10s-16.3-3.3-23-10L17,113c-6.7-6.7-10-14.3-10-23
	s3.3-16.3,10-23l50-50c6.7-6.7,14.3-10,23-10s16.3,3.3,23,10l393,393L899,17c6.7-6.7,14.3-10,23-10s16.3,3.3,23,10l50,50
	C1001.7,73.7,1005,81.3,1005,90z"/>
</svg>
