
<svg version="1.1" id="Layer_1" xmlns="http://www.w3.org/2000/svg" xmlns:xlink="http://www.w3.org/1999/xlink" x="0px" y="0px"
	 width="998px" height="582px" viewBox="0 0 998 582" enable-background="new 0 0 998 582" xml:space="preserve">
<path d="M998,499c0,8.7-3.3,16.3-10,23l-50,50c-6.7,6.7-14.3,10-23,10s-16.3-3.3-23-10L499,179L106,572c-6.7,6.7-14.3,10-23,10
	s-16.3-3.3-23-10l-50-50c-6.7-6.7-10-14.3-10-23s3.3-16.3,10-23L476,10c6.7-6.7,14.3-10,23-10s16.3,3.3,23,10l466,466
	C994.7,482.7,998,490.3,998,499z"/>
</svg>
