<?xml version="1.0" encoding="utf-8"?>
<!-- Generator: Adobe Illustrator 19.2.1, SVG Export Plug-In . SVG Version: 6.00 Build 0)  -->
<!DOCTYPE svg PUBLIC "-//W3C//DTD SVG 1.1//EN" "http://www.w3.org/Graphics/SVG/1.1/DTD/svg11.dtd">
<svg version="1.1" id="Layer_1" xmlns="http://www.w3.org/2000/svg" xmlns:xlink="http://www.w3.org/1999/xlink" x="0px" y="0px"
	 width="1664px" height="1792px" viewBox="0 0 1664 1792" style="enable-background:new 0 0 1664 1792;" xml:space="preserve">
<path d="M128,1664h288v-288H128V1664z M480,1664h320v-288H480V1664z M128,1312h288V992H128V1312z M480,1312h320V992H480V1312z
	 M128,928h288V640H128V928z M864,1664h320v-288H864V1664z M480,928h320V640H480V928z M1248,1664h288v-288h-288V1664z M864,1312h320
	V992H864V1312z M512,448V160c0-8.7-3.2-16.2-9.5-22.5S488.7,128,480,128h-64c-8.7,0-16.2,3.2-22.5,9.5S384,151.3,384,160v288
	c0,8.7,3.2,16.2,9.5,22.5s13.8,9.5,22.5,9.5h64c8.7,0,16.2-3.2,22.5-9.5S512,456.7,512,448z M1248,1312h288V992h-288V1312z M864,928
	h320V640H864V928z M1248,928h288V640h-288V928z M1280,448V160c0-8.7-3.2-16.2-9.5-22.5s-13.8-9.5-22.5-9.5h-64
	c-8.7,0-16.2,3.2-22.5,9.5s-9.5,13.8-9.5,22.5v288c0,8.7,3.2,16.2,9.5,22.5s13.8,9.5,22.5,9.5h64c8.7,0,16.2-3.2,22.5-9.5
	S1280,456.7,1280,448z M1664,384v1280c0,34.7-12.7,64.7-38,90s-55.3,38-90,38H128c-34.7,0-64.7-12.7-90-38s-38-55.3-38-90V384
	c0-34.7,12.7-64.7,38-90s55.3-38,90-38h128v-96c0-44,15.7-81.7,47-113S372,0,416,0h64c44,0,81.7,15.7,113,47s47,69,47,113v96h384
	v-96c0-44,15.7-81.7,47-113s69-47,113-47h64c44,0,81.7,15.7,113,47s47,69,47,113v96h128c34.7,0,64.7,12.7,90,38S1664,349.3,1664,384
	z"/>
</svg>
