
<svg version="1.1" id="Layer_1" xmlns="http://www.w3.org/2000/svg" xmlns:xlink="http://www.w3.org/1999/xlink" x="0px" y="0px"
	 width="1792px" height="1536px" viewBox="0 0 1792 1536" enable-background="new 0 0 1792 1536" xml:space="preserve">
<path d="M896,1536c-17.3,0-32-6-44-18L228,916c-6.7-5.3-15.8-14-27.5-26s-30.2-33.8-55.5-65.5S97,760.3,77,727s-37.8-73.7-53.5-121
	S0,512.7,0,468c0-146.7,42.3-261.3,127-344S328.7,0,478,0c41.3,0,83.5,7.2,126.5,21.5s83,33.7,120,58s68.8,47.2,95.5,68.5
	s52,44,76,68c24-24,49.3-46.7,76-68s58.5-44.2,95.5-68.5s77-43.7,120-58S1272.7,0,1314,0c149.3,0,266.3,41.3,351,124
	s127,197.3,127,344c0,147.3-76.3,297.3-229,450l-623,600C928,1530,913.3,1536,896,1536z"/>
</svg>
