
<svg version="1.1" id="Key" xmlns="http://www.w3.org/2000/svg" xmlns:xlink="http://www.w3.org/1999/xlink" x="0px" y="0px"
	 width="18.2px" height="17px" viewBox="0 0 18.2 17" style="enable-background:new 0 0 18.2 17;" xml:space="preserve">
<path d="M5.1,11.4c0.7,0,1.8-0.3,2.5-0.6l3.3,3.2l1.4-0.1l0,0l2.8,2.7c0.2,0.2,0.7,0.4,1.1,0.4l1.5-0.1c0.3,0,0.6-0.3,0.6-0.7
	l-0.2-2c0-0.3-0.3-0.8-0.5-1L10.7,7c0.2-0.8,0.2-1.8,0.2-2.5c-0.2-3-3.1-4.7-6-4.5C1.9,0.2-0.2,2.8,0,5.8C0.2,8.8,2.2,11.6,5.1,11.4
	z M2.6,3C3.4,2,5,1.9,6.1,2.8c1,0.9,0.2,1.7-0.7,2.7C4.5,6.6,3.9,7.6,2.8,6.7C1.8,5.7,1.7,4.1,2.6,3z"/>
</svg>
