<?xml version="1.0" encoding="utf-8"?>
<!-- Generator: Adobe Illustrator 19.2.1, SVG Export Plug-In . SVG Version: 6.00 Build 0)  -->
<svg version="1.1" id="Layer_1" xmlns="http://www.w3.org/2000/svg" xmlns:xlink="http://www.w3.org/1999/xlink" x="0px" y="0px"
	 width="768.1px" height="1728px" viewBox="0 0 768.1 1728" style="enable-background:new 0 0 768.1 1728;" xml:space="preserve">
<path d="M765,429c-6,12.7-15.7,19-29,19H512v1248c0,9.3-3,17-9,23s-13.7,9-23,9H288c-9.3,0-17-3-23-9s-9-13.7-9-23V448H32
	c-14,0-23.7-6.3-29-19c-5.3-12.7-3.7-24.3,5-35L358,10c6.7-6.7,14.3-10,23-10c9.3,0,17.3,3.3,24,10l355,384
	C768.7,404.7,770.4,416.3,765,429z"/>
</svg>
