<?xml version="1.0" encoding="utf-8"?>
<!-- Generator: Adobe Illustrator 19.2.1, SVG Export Plug-In . SVG Version: 6.00 Build 0)  -->
<svg version="1.1" id="Layer_1" xmlns="http://www.w3.org/2000/svg" xmlns:xlink="http://www.w3.org/1999/xlink" x="0px" y="0px"
	 width="1728px" height="768px" viewBox="0 0 1728 768" style="enable-background:new 0 0 1728 768;" xml:space="preserve">
<path d="M1728,287.9v192c0,9.3-3,17-9,23s-13.7,9-23,9H448v224c0,14-6.3,23.7-19,29s-24.3,3.7-35-5l-384-350c-6.7-6.7-10-14.3-10-23
	c0-9.3,3.3-17.3,10-24l384-354c10.7-9.3,22.3-11.3,35-6c12.7,6,19,15.7,19,29v224h1248c9.3,0,17,3,23,9S1728,278.6,1728,287.9z"/>
</svg>
