<?xml version="1.0" encoding="utf-8"?>
<!-- Generator: Adobe Illustrator 19.2.1, SVG Export Plug-In . SVG Version: 6.00 Build 0)  -->
<svg version="1.1" id="Layer_1" xmlns="http://www.w3.org/2000/svg" xmlns:xlink="http://www.w3.org/1999/xlink" x="0px" y="0px"
	 width="768.1px" height="1728px" viewBox="0 0 768.1 1728" style="enable-background:new 0 0 768.1 1728;" xml:space="preserve">
<path d="M765,1299c5.3,12.7,3.7,24.3-5,35l-350,384c-6.7,6.7-14.3,10-23,10c-9.3,0-17.3-3.3-24-10L8,1334c-8.7-10.7-10.3-22.3-5-35
	c6-12.7,15.7-19,29-19h224V32c0-9.3,3-17,9-23s13.7-9,23-9h192c9.3,0,17,3,23,9s9,13.7,9,23v1248h224
	C750,1280,759.7,1286.3,765,1299z"/>
</svg>
