<?xml version="1.0" encoding="utf-8"?>
<!-- Generator: Adobe Illustrator 19.2.1, SVG Export Plug-In . SVG Version: 6.00 Build 0)  -->
<svg version="1.1" id="Layer_1" xmlns="http://www.w3.org/2000/svg" xmlns:xlink="http://www.w3.org/1999/xlink" x="0px" y="0px"
	 width="1728px" height="768px" viewBox="0 0 1728 768" style="enable-background:new 0 0 1728 768;" xml:space="preserve">
<path d="M1728,381c0,9.3-3.3,17.3-10,24l-384,354c-10.7,9.3-22.3,11.3-35,6c-12.7-6-19-15.7-19-29V512H32c-9.3,0-17-3-23-9
	s-9-13.7-9-23V288c0-9.3,3-17,9-23s13.7-9,23-9h1248V32c0-14,6.3-23.7,19-29c12.7-5.3,24.3-3.7,35,5l384,350
	C1724.7,364.7,1728,372.4,1728,381z"/>
</svg>
