
<svg version="1.1" id="Layer_1" xmlns="http://www.w3.org/2000/svg" xmlns:xlink="http://www.w3.org/1999/xlink" x="0px" y="0px"
	 width="1536px" height="1536px" viewBox="0 0 1536 1536" enable-background="new 0 0 1536 1536" xml:space="preserve">
<path d="M768,0c139.3,0,267.8,34.3,385.5,103s210.8,161.8,279.5,279.5s103,246.2,103,385.5s-34.3,267.8-103,385.5
	s-161.8,210.8-279.5,279.5S907.3,1536,768,1536s-267.8-34.3-385.5-103S171.7,1271.2,103,1153.5S0,907.3,0,768s34.3-267.8,103-385.5
	S264.8,171.7,382.5,103S628.7,0,768,0z M1152,823c21.3-12,32-30.3,32-55s-10.7-43-32-55L608,393c-20.7-12.7-42-13-64-1
	c-21.3,12.7-32,31.3-32,56v640c0,24.7,10.7,43.3,32,56c10.7,5.3,21.3,8,32,8c11.3,0,22-3,32-9L1152,823z"/>
</svg>
