<?xml version="1.0" encoding="utf-8"?>
<!-- Generator: Adobe Illustrator 19.2.1, SVG Export Plug-In . SVG Version: 6.00 Build 0)  -->
<svg version="1.1" id="Layer_1" xmlns="http://www.w3.org/2000/svg" xmlns:xlink="http://www.w3.org/1999/xlink" x="0px" y="0px"
	 width="1899px" height="1515px" viewBox="0 0 1899 1515" style="enable-background:new 0 0 1899 1515;" xml:space="preserve">
<path d="M448,320c0-35.3-12.5-65.5-37.5-90.5S355.3,192,320,192s-65.5,12.5-90.5,37.5S192,284.7,192,320s12.5,65.5,37.5,90.5
	S284.7,448,320,448s65.5-12.5,90.5-37.5S448,355.3,448,320z M1515,896c0,35.3-12.3,65.3-37,90l-491,492c-26,24.7-56.3,37-91,37
	c-35.3,0-65.3-12.3-90-37L91,762c-25.3-24.7-46.8-58.3-64.5-101S0,579.3,0,544V128c0-34.7,12.7-64.7,38-90S93.3,0,128,0h416
	c35.3,0,74.3,8.8,117,26.5S737.7,65.7,763,91l715,714C1502.7,831,1515,861.3,1515,896z M1899,896c0,35.3-12.3,65.3-37,90l-491,492
	c-26,24.7-56.3,37-91,37c-24,0-43.7-4.7-59-14s-33-24.3-53-45l470-470c24.7-24.7,37-54.7,37-90c0-34.7-12.3-65-37-91L923,91
	c-25.3-25.3-59.3-46.8-102-64.5S739.3,0,704,0h224c35.3,0,74.3,8.8,117,26.5c42.7,17.7,76.7,39.2,102,64.5l715,714
	C1886.7,831,1899,861.3,1899,896z"/>
</svg>
